# xmcd
#
# Track frame offsets:
# 150
# 14294
# 28009
# 41683
# 55300
# 65900
# 80303
# 93883
# 108836
# 122866
# 137592
# 152804
# 166501
# 177234
# 190731
# 204434
# 218507
# 231940
# 247152
# 261231
# 277072
# 288524
# 303072
#
# Disc length: 4242 seconds
#
#
# Revision: 0
# Processed by: cddbd v1.4PL0 Copyright (c) Steve Scherf et al.
# Submitted via: FreeRIP 2.51 
#
DISCID=42109017
DTITLE=Ritmo 5 - Exitos de Ritmo 5
DYEAR=0090
DGENRE=Latin
TTITLE0=EL ALACRAN
TTITLE1=TONTO DE MI
TTITLE2=NIÑA SENSUAL
TTITLE3=GRACIAS POR LLAMARME AHORA
TTITLE4=NOVIA CELOSA
TTITLE5=ABEJA REYNA
TTITLE6=AMOR POBRE
TTITLE7=POR QUE ESTAS ENAMORADA
TTITLE8=VINO MALDITO
TTITLE9=YA LLEGO JUANA
TTITLE10=FUE MI ERROR
TTITLE11=EL ALACRAN DE JUAN
TTITLE12=LO LINDO DE TI
TTITLE13=AMOR AMOR
TTITLE14=GORRIONCILLO
TTITLE15=DE RODILLAS ANTE TI
TTITLE16=DESILUCION
TTITLE17=TE VAS AHORA
TTITLE18=ENAMORADO DE TI
TTITLE19=ME QUITARON TU AMOR
TTITLE20=LINDA FLORECITA
TTITLE21=Y PARA QUE
TTITLE22=CUANDO REGRESES
EXTD=
EXTT0=
EXTT1=
EXTT2=
EXTT3=
EXTT4=
EXTT5=
EXTT6=
EXTT7=
EXTT8=
EXTT9=
EXTT10=
EXTT11=
EXTT12=
EXTT13=
EXTT14=
EXTT15=
EXTT16=
EXTT17=
EXTT18=
EXTT19=
EXTT20=
EXTT21=
EXTT22=
PLAYORDER=
